<svg xmlns="http://www.w3.org/2000/svg" width="192" height="192" style="shape-rendering: crispEdges;">
<rect width="192" height="192" fill="#FFFFFF" />
<rect x="112" y="160" width="16" height="16" fill="#000000" />
<rect x="64" y="160" width="16" height="16" fill="#000000" />
<rect x="48" y="144" width="16" height="16" fill="#000000" />
<rect x="48" y="128" width="16" height="16" fill="#000000" />
<rect x="128" y="144" width="16" height="16" fill="#000000" />
<rect x="128" y="128" width="16" height="16" fill="#000000" />
<rect x="32" y="112" width="16" height="16" fill="#000000" />
<rect x="48" y="112" width="16" height="16" fill="#000000" />
<rect x="64" y="112" width="16" height="16" fill="#000000" />
<rect x="80" y="112" width="16" height="16" fill="#000000" />
<rect x="96" y="112" width="16" height="16" fill="#000000" />
<rect x="112" y="112" width="16" height="16" fill="#000000" />
<rect x="128" y="112" width="16" height="16" fill="#000000" />
<rect x="144" y="112" width="16" height="16" fill="#000000" />
<rect x="160" y="96" width="16" height="16" fill="#000000" />
<rect x="16" y="96" width="16" height="16" fill="#000000" />
<rect x="0" y="80" width="16" height="16" fill="#000000" />
<rect x="0" y="64" width="16" height="16" fill="#000000" />
<rect x="176" y="80" width="16" height="16" fill="#000000" />
<rect x="176" y="64" width="16" height="16" fill="#000000" />
<rect x="160" y="48" width="16" height="16" fill="#000000" />
<rect x="160" y="32" width="16" height="16" fill="#000000" />
<rect x="16" y="48" width="16" height="16" fill="#000000" />
<rect x="16" y="32" width="16" height="16" fill="#000000" />
<rect x="32" y="16" width="16" height="16" fill="#000000" />
<rect x="144" y="16" width="16" height="16" fill="#000000" />
<rect x="48" y="0" width="16" height="16" fill="#000000" />
<rect x="64" y="0" width="16" height="16" fill="#000000" />
<rect x="80" y="0" width="16" height="16" fill="#000000" />
<rect x="112" y="0" width="16" height="16" fill="#000000" />
<rect x="128" y="0" width="16" height="16" fill="#000000" />
<rect x="80" y="128" width="16" height="16" fill="#dcd2ac" />
<rect x="96" y="128" width="16" height="16" fill="#dcd2ac" />
<rect x="112" y="128" width="16" height="16" fill="#dcd2ac" />
<rect x="112" y="144" width="16" height="16" fill="#dcd2ac" />
<rect x="96" y="160" width="16" height="16" fill="#dcd2ac" />
<rect x="96" y="144" width="16" height="16" fill="#dcd2ac" />
<rect x="80" y="144" width="16" height="16" fill="#dcd2ac" />
<rect x="64" y="144" width="16" height="16" fill="#bdb598" />
<rect x="64" y="128" width="16" height="16" fill="#bdb598" />
<rect x="48" y="160" width="16" height="16" fill="#000000" />
<rect x="96" y="0" width="16" height="16" fill="#000000" />
<rect x="64" y="16" width="16" height="16" fill="#fdfcfd" />
<rect x="80" y="16" width="16" height="16" fill="#fdfcfd" />
<rect x="128" y="48" width="16" height="16" fill="#fdfcfd" />
<rect x="112" y="48" width="16" height="16" fill="#fdfcfd" />
<rect x="128" y="64" width="16" height="16" fill="#fdfcfd" />
<rect x="144" y="64" width="16" height="16" fill="#fdfcfd" />
<rect x="48" y="80" width="16" height="16" fill="#fdfcfd" />
<rect x="32" y="80" width="16" height="16" fill="#fdfcfd" />
<rect x="32" y="64" width="16" height="16" fill="#fdfcfd" />
<rect x="48" y="64" width="16" height="16" fill="#fdfcfd" />
<rect x="96" y="64" width="16" height="16" fill="#ddd9dd" />
<rect x="112" y="64" width="16" height="16" fill="#ddd9dd" />
<rect x="112" y="80" width="16" height="16" fill="#ddd9dd" />
<rect x="128" y="80" width="16" height="16" fill="#ddd9dd" />
<rect x="96" y="16" width="16" height="16" fill="#ddd9dd" />
<rect x="80" y="32" width="16" height="16" fill="#ddd9dd" />
<rect x="64" y="32" width="16" height="16" fill="#ddd9dd" />
<rect x="48" y="16" width="16" height="16" fill="#ddd9dd" />
<rect x="32" y="48" width="16" height="16" fill="#ddd9dd" />
<rect x="48" y="48" width="16" height="16" fill="#ddd9dd" />
<rect x="64" y="64" width="16" height="16" fill="#ddd9dd" />
<rect x="64" y="80" width="16" height="16" fill="#ddd9dd" />
<rect x="32" y="96" width="16" height="16" fill="#ddd9dd" />
<rect x="48" y="96" width="16" height="16" fill="#ddd9dd" />
<rect x="16" y="80" width="16" height="16" fill="#ddd9dd" />
<rect x="16" y="64" width="16" height="16" fill="#e679e6" />
<rect x="32" y="32" width="16" height="16" fill="#e679e6" />
<rect x="48" y="32" width="16" height="16" fill="#e679e6" />
<rect x="64" y="48" width="16" height="16" fill="#e679e6" />
<rect x="96" y="48" width="16" height="16" fill="#e679e6" />
<rect x="80" y="48" width="16" height="16" fill="#e679e6" />
<rect x="80" y="64" width="16" height="16" fill="#e679e6" />
<rect x="64" y="96" width="16" height="16" fill="#e679e6" />
<rect x="80" y="80" width="16" height="16" fill="#e679e6" />
<rect x="80" y="96" width="16" height="16" fill="#e679e6" />
<rect x="96" y="80" width="16" height="16" fill="#e679e6" />
<rect x="96" y="96" width="16" height="16" fill="#e679e6" />
<rect x="112" y="96" width="16" height="16" fill="#e679e6" />
<rect x="128" y="96" width="16" height="16" fill="#e679e6" />
<rect x="144" y="96" width="16" height="16" fill="#e679e6" />
<rect x="144" y="80" width="16" height="16" fill="#e679e6" />
<rect x="160" y="80" width="16" height="16" fill="#e679e6" />
<rect x="160" y="64" width="16" height="16" fill="#e679e6" />
<rect x="144" y="48" width="16" height="16" fill="#e679e6" />
<rect x="144" y="32" width="16" height="16" fill="#e679e6" />
<rect x="128" y="32" width="16" height="16" fill="#e679e6" />
<rect x="96" y="32" width="16" height="16" fill="#e679e6" />
<rect x="112" y="32" width="16" height="16" fill="#e679e6" />
<rect x="112" y="16" width="16" height="16" fill="#e679e6" />
<rect x="128" y="16" width="16" height="16" fill="#e679e6" />
<rect x="0" y="48" width="16" height="16" fill="#b6fafb" />
<rect x="0" y="32" width="16" height="16" fill="#b6fafb" />
<rect x="32" y="0" width="16" height="16" fill="#b6fafb" />
<rect x="16" y="0" width="16" height="16" fill="#b6fafb" />
<rect x="0" y="96" width="16" height="16" fill="#b6fafb" />
<rect x="0" y="112" width="16" height="16" fill="#b6fafb" />
<rect x="0" y="128" width="16" height="16" fill="#b6fafb" />
<rect x="16" y="112" width="16" height="16" fill="#b6fafb" />
<rect x="16" y="128" width="16" height="16" fill="#b6fafb" />
<rect x="16" y="144" width="16" height="16" fill="#b6fafb" />
<rect x="32" y="128" width="16" height="16" fill="#b6fafb" />
<rect x="32" y="144" width="16" height="16" fill="#b6fafb" />
<rect x="32" y="160" width="16" height="16" fill="#b6fafb" />
<rect x="144" y="160" width="16" height="16" fill="#b6fafb" />
<rect x="160" y="144" width="16" height="16" fill="#b6fafb" />
<rect x="160" y="112" width="16" height="16" fill="#b6fafb" />
<rect x="160" y="128" width="16" height="16" fill="#b6fafb" />
<rect x="144" y="128" width="16" height="16" fill="#b6fafb" />
<rect x="176" y="112" width="16" height="16" fill="#b6fafb" />
<rect x="176" y="96" width="16" height="16" fill="#b6fafb" />
<rect x="176" y="48" width="16" height="16" fill="#b6fafb" />
<rect x="176" y="32" width="16" height="16" fill="#b6fafb" />
<rect x="160" y="0" width="16" height="16" fill="#b6fafb" />
<rect x="160" y="16" width="16" height="16" fill="#b6fafb" />
<rect x="0" y="144" width="16" height="16" fill="#81dfbf" />
<rect x="0" y="160" width="16" height="16" fill="#81dfbf" />
<rect x="0" y="176" width="16" height="16" fill="#81dfbf" />
<rect x="16" y="160" width="16" height="16" fill="#81dfbf" />
<rect x="16" y="176" width="16" height="16" fill="#81dfbf" />
<rect x="32" y="176" width="16" height="16" fill="#81dfbf" />
<rect x="48" y="176" width="16" height="16" fill="#81dfbf" />
<rect x="64" y="176" width="16" height="16" fill="#81dfbf" />
<rect x="80" y="160" width="16" height="16" fill="#81dfbf" />
<rect x="80" y="176" width="16" height="16" fill="#81dfbf" />
<rect x="96" y="176" width="16" height="16" fill="#81dfbf" />
<rect x="112" y="176" width="16" height="16" fill="#81dfbf" />
<rect x="128" y="160" width="16" height="16" fill="#81dfbf" />
<rect x="128" y="176" width="16" height="16" fill="#81dfbf" />
<rect x="144" y="176" width="16" height="16" fill="#81dfbf" />
<rect x="160" y="160" width="16" height="16" fill="#81dfbf" />
<rect x="160" y="176" width="16" height="16" fill="#81dfbf" />
<rect x="176" y="176" width="16" height="16" fill="#81dfbf" />
<rect x="176" y="160" width="16" height="16" fill="#81dfbf" />
<rect x="176" y="144" width="16" height="16" fill="#81dfbf" />
<rect x="176" y="128" width="16" height="16" fill="#81dfbf" />
<rect x="144" y="144" width="16" height="16" fill="#81dfbf" />
<rect x="0" y="0" width="16" height="16" fill="#b3f5b7" />
<rect x="176" y="0" width="16" height="16" fill="#b3f5b7" />
<rect x="144" y="0" width="16" height="16" fill="#b3f5b7" />
<rect x="176" y="16" width="16" height="16" fill="#b3f5b7" />
<rect x="0" y="16" width="16" height="16" fill="#b3f5b7" />
<rect x="16" y="16" width="16" height="16" fill="#b3f5b7" />
</svg>